<svg xmlns="http://www.w3.org/2000/svg" viewBox="0 0 64 64">
  <g fill="#fdcb6e" stroke="#d6a24a" stroke-width="2.5" stroke-linejoin="round">
    <rect x="22" y="8" width="20" height="8" rx="4" />
    <rect x="15" y="18" width="34" height="9" rx="4.5" />
    <path d="M12 34c0-2.8 2.2-5 5-5h30c2.8 0 5 2.2 5 5s-2.2 5-5 5H17c-2.8 0-5-2.2-5-5Z" />
    <rect x="24.5" y="28" width="15" height="16" rx="7.5" />
    <path d="M14 44c0-2.8 2.2-5 5-5h26c2.8 0 5 2.2 5 5s-2.2 5-5 5H19c-2.8 0-5-2.2-5-5Z" />
    <rect x="18" y="49" width="28" height="7" rx="3.5" />
  </g>
  <circle cx="32" cy="36" r="3.5" fill="#f4b74f" />
</svg>
